<svg xmlns="http://www.w3.org/2000/svg" viewBox="0 0 1619 164" role="img" aria-label="TransGest logo">
  <path d="M 986 56 L 985 61 L 983 64 L 982 72 L 981 73 L 981 78 L 980 79 L 980 97 L 981 98 L 981 103 L 982 104 L 983 111 L 986 116 L 986 118 L 988 122 L 990 124 L 992 128 L 999 135 L 1000 135 L 1010 143 L 1016 146 L 1018 146 L 1024 149 L 1031 150 L 1032 151 L 1042 152 L 1043 153 L 1049 153 L 1050 154 L 1061 154 L 1062 155 L 1083 155 L 1084 154 L 1097 154 L 1098 153 L 1105 153 L 1106 152 L 1111 152 L 1112 151 L 1116 151 L 1117 150 L 1126 149 L 1127 148 L 1130 148 L 1131 147 L 1136 146 L 1139 144 L 1141 144 L 1144 142 L 1146 142 L 1150 140 L 1151 141 L 1151 152 L 1198 152 L 1199 151 L 1199 76 L 1198 75 L 1198 72 L 1197 71 L 1091 71 L 1090 72 L 1088 71 L 1086 74 L 1086 84 L 1085 85 L 1085 95 L 1084 96 L 1084 100 L 1085 101 L 1102 101 L 1103 100 L 1113 100 L 1114 99 L 1120 99 L 1121 98 L 1129 98 L 1130 97 L 1137 97 L 1138 96 L 1147 96 L 1148 94 L 1148 86 L 1149 85 L 1151 87 L 1155 89 L 1158 92 L 1162 94 L 1169 100 L 1170 100 L 1177 105 L 1174 108 L 1173 108 L 1170 111 L 1169 111 L 1166 114 L 1165 114 L 1162 117 L 1158 119 L 1155 122 L 1154 122 L 1149 126 L 1147 125 L 1147 115 L 1123 115 L 1122 116 L 1116 117 L 1115 118 L 1112 118 L 1111 119 L 1106 119 L 1105 120 L 1094 120 L 1093 121 L 1074 121 L 1073 120 L 1062 120 L 1061 119 L 1057 119 L 1056 118 L 1053 118 L 1050 116 L 1048 116 L 1046 114 L 1041 112 L 1034 105 L 1032 101 L 1032 99 L 1031 98 L 1031 94 L 1030 93 L 1030 79 L 1031 78 L 1032 70 L 1034 66 L 1042 57 L 1043 57 L 1049 52 L 1051 52 L 1055 50 L 1058 50 L 1059 49 L 1062 49 L 1063 48 L 1067 48 L 1068 47 L 1074 47 L 1075 46 L 1107 46 L 1108 47 L 1115 47 L 1116 48 L 1120 48 L 1121 49 L 1129 51 L 1133 53 L 1139 59 L 1193 59 L 1194 58 L 1193 57 L 1192 52 L 1189 46 L 1182 38 L 1182 37 L 1172 28 L 1161 22 L 1159 22 L 1156 20 L 1154 20 L 1148 17 L 1145 17 L 1141 15 L 1137 15 L 1136 14 L 1132 14 L 1131 13 L 1125 13 L 1124 12 L 1115 12 L 1114 11 L 1089 11 L 1087 10 L 1086 11 L 1069 11 L 1068 12 L 1060 12 L 1059 13 L 1048 14 L 1047 15 L 1044 15 L 1043 16 L 1036 17 L 1035 18 L 1030 19 L 1027 21 L 1022 22 L 1009 29 L 1006 32 L 1005 32 L 993 44 L 993 45 L 989 50 Z
M 8 51 L 9 52 L 43 52 L 44 53 L 108 53 L 109 54 L 109 58 L 108 59 L 108 61 L 102 72 L 95 80 L 91 87 L 88 90 L 88 92 L 89 92 L 100 86 L 102 86 L 105 84 L 107 84 L 114 80 L 116 80 L 121 77 L 123 77 L 128 74 L 130 74 L 133 72 L 135 72 L 143 68 L 146 68 L 147 67 L 152 66 L 155 64 L 157 64 L 158 63 L 160 63 L 161 62 L 163 62 L 164 61 L 166 61 L 167 60 L 169 60 L 170 59 L 172 59 L 173 58 L 175 58 L 176 57 L 178 57 L 179 56 L 181 56 L 182 55 L 184 55 L 185 54 L 187 54 L 191 52 L 194 52 L 195 51 L 198 51 L 199 50 L 206 49 L 210 47 L 213 47 L 214 46 L 217 46 L 218 45 L 221 45 L 222 44 L 225 44 L 226 43 L 230 43 L 231 42 L 234 42 L 235 41 L 238 41 L 239 40 L 242 40 L 243 39 L 252 38 L 253 37 L 256 37 L 257 36 L 269 35 L 270 34 L 282 33 L 283 32 L 289 32 L 290 31 L 296 31 L 297 30 L 303 30 L 304 29 L 309 29 L 310 28 L 317 28 L 318 27 L 325 27 L 326 26 L 334 26 L 335 25 L 343 25 L 344 24 L 353 24 L 354 23 L 367 23 L 368 22 L 384 22 L 385 21 L 390 21 L 396 18 L 399 15 L 399 14 L 395 10 L 391 9 L 390 8 L 16 8 L 15 10 L 15 14 L 14 15 L 14 20 L 13 21 L 13 26 L 12 27 L 12 33 L 11 34 L 11 38 L 10 39 L 10 43 L 9 44 L 9 48 L 8 49 Z
M 405 30 L 404 29 L 386 29 L 385 28 L 382 28 L 381 29 L 380 28 L 379 29 L 361 29 L 360 30 L 352 30 L 351 31 L 345 31 L 344 32 L 333 33 L 332 34 L 328 34 L 327 35 L 318 36 L 317 37 L 314 37 L 313 38 L 309 38 L 308 39 L 305 39 L 304 40 L 301 40 L 300 41 L 297 41 L 296 42 L 289 43 L 288 44 L 286 44 L 285 45 L 283 45 L 282 46 L 280 46 L 279 47 L 271 49 L 268 51 L 263 52 L 260 54 L 258 54 L 250 58 L 248 58 L 230 67 L 228 69 L 217 74 L 215 76 L 214 76 L 212 78 L 211 78 L 209 80 L 202 84 L 199 87 L 198 87 L 196 89 L 189 93 L 184 98 L 183 98 L 176 105 L 175 105 L 152 129 L 152 130 L 146 137 L 144 142 L 142 144 L 140 149 L 138 151 L 138 153 L 270 153 L 272 149 L 272 143 L 273 142 L 273 133 L 274 132 L 274 126 L 275 125 L 275 119 L 276 118 L 276 113 L 277 112 L 278 99 L 279 98 L 279 93 L 280 92 L 280 87 L 281 86 L 281 81 L 282 80 L 282 74 L 283 73 L 283 69 L 285 66 L 303 66 L 304 65 L 319 65 L 320 64 L 339 64 L 340 63 L 366 63 L 367 62 L 391 62 L 392 61 L 395 61 L 400 56 L 401 52 L 402 51 L 402 46 L 403 45 L 403 40 L 404 39 L 404 33 L 405 32 Z
M 525 67 L 524 71 L 523 72 L 523 74 L 522 75 L 522 77 L 521 78 L 521 81 L 522 82 L 564 82 L 566 81 L 566 79 L 569 75 L 573 73 L 576 73 L 577 72 L 603 72 L 604 73 L 610 74 L 612 76 L 613 76 L 616 80 L 616 88 L 615 89 L 614 88 L 613 89 L 606 89 L 605 88 L 562 88 L 561 89 L 551 89 L 550 90 L 544 90 L 543 91 L 540 91 L 539 92 L 534 93 L 525 98 L 518 105 L 518 106 L 515 110 L 515 112 L 514 113 L 514 117 L 513 118 L 513 129 L 514 130 L 515 136 L 518 140 L 518 141 L 526 148 L 530 149 L 533 151 L 536 151 L 537 152 L 540 152 L 541 153 L 545 153 L 546 154 L 554 154 L 555 155 L 578 155 L 579 154 L 587 154 L 588 153 L 592 153 L 593 152 L 596 152 L 597 151 L 602 150 L 605 148 L 607 148 L 614 142 L 615 143 L 615 152 L 659 152 L 659 117 L 660 116 L 660 77 L 659 76 L 659 73 L 658 72 L 658 70 L 656 66 L 653 63 L 653 62 L 646 56 L 640 53 L 635 52 L 634 51 L 631 51 L 630 50 L 627 50 L 626 49 L 620 49 L 619 48 L 611 48 L 610 47 L 574 47 L 573 48 L 564 48 L 563 49 L 557 49 L 556 50 L 549 51 L 543 54 L 541 54 L 537 56 L 532 60 L 531 60 Z
M 1216 77 L 1216 79 L 1214 83 L 1214 87 L 1213 88 L 1213 96 L 1212 97 L 1212 110 L 1213 111 L 1214 121 L 1215 122 L 1215 124 L 1217 127 L 1217 129 L 1219 133 L 1224 138 L 1224 139 L 1230 144 L 1237 148 L 1239 148 L 1240 149 L 1242 149 L 1246 151 L 1255 152 L 1256 153 L 1261 153 L 1262 154 L 1273 154 L 1274 155 L 1305 155 L 1306 154 L 1316 154 L 1317 153 L 1322 153 L 1323 152 L 1328 152 L 1329 151 L 1332 151 L 1333 150 L 1335 150 L 1336 149 L 1338 149 L 1339 148 L 1341 148 L 1345 146 L 1355 138 L 1355 137 L 1358 134 L 1358 133 L 1361 129 L 1362 123 L 1363 122 L 1363 118 L 1320 118 L 1318 122 L 1315 125 L 1311 126 L 1310 127 L 1307 127 L 1306 128 L 1298 128 L 1297 129 L 1283 129 L 1282 128 L 1274 128 L 1273 127 L 1269 127 L 1263 124 L 1260 121 L 1258 117 L 1258 114 L 1257 113 L 1257 111 L 1258 110 L 1364 110 L 1364 90 L 1363 89 L 1362 79 L 1357 68 L 1348 59 L 1334 52 L 1328 51 L 1327 50 L 1324 50 L 1323 49 L 1317 49 L 1316 48 L 1307 48 L 1306 47 L 1273 47 L 1272 48 L 1263 48 L 1262 49 L 1256 49 L 1255 50 L 1248 51 L 1247 52 L 1242 53 L 1239 55 L 1237 55 L 1230 60 L 1229 60 L 1221 68 Z
M 839 62 L 833 74 L 833 77 L 832 78 L 832 88 L 833 89 L 833 92 L 834 93 L 835 97 L 837 99 L 837 100 L 844 106 L 848 108 L 853 109 L 854 110 L 857 110 L 858 111 L 863 111 L 864 112 L 873 112 L 874 113 L 892 113 L 893 114 L 915 114 L 916 115 L 921 115 L 925 118 L 925 124 L 922 127 L 920 128 L 916 128 L 915 129 L 888 129 L 887 128 L 884 128 L 880 126 L 877 123 L 876 119 L 831 119 L 831 126 L 832 127 L 832 129 L 837 138 L 844 145 L 852 149 L 854 149 L 858 151 L 862 151 L 863 152 L 867 152 L 868 153 L 874 153 L 875 154 L 886 154 L 887 155 L 916 155 L 917 154 L 928 154 L 929 153 L 934 153 L 935 152 L 939 152 L 940 151 L 943 151 L 944 150 L 952 148 L 956 145 L 957 145 L 965 137 L 968 131 L 968 129 L 969 128 L 969 123 L 970 122 L 970 114 L 969 113 L 969 110 L 968 109 L 968 107 L 967 106 L 966 102 L 957 94 L 955 94 L 952 92 L 950 92 L 946 90 L 942 90 L 941 89 L 934 89 L 933 88 L 922 88 L 921 87 L 899 87 L 898 86 L 885 86 L 884 85 L 881 85 L 877 82 L 877 77 L 880 74 L 886 73 L 887 72 L 912 72 L 913 73 L 916 73 L 918 74 L 922 78 L 922 80 L 923 81 L 965 81 L 966 80 L 965 72 L 961 64 L 952 56 L 946 53 L 944 53 L 943 52 L 941 52 L 937 50 L 927 49 L 926 48 L 917 48 L 916 47 L 883 47 L 882 48 L 873 48 L 872 49 L 867 49 L 866 50 L 862 50 L 861 51 L 853 53 L 845 57 L 841 61 Z
M 1380 67 L 1378 71 L 1378 73 L 1377 74 L 1377 78 L 1376 79 L 1376 88 L 1377 89 L 1378 95 L 1381 99 L 1381 100 L 1384 103 L 1385 103 L 1390 107 L 1392 107 L 1398 110 L 1401 110 L 1402 111 L 1408 111 L 1409 112 L 1418 112 L 1419 113 L 1438 113 L 1439 114 L 1460 114 L 1461 115 L 1465 115 L 1469 118 L 1469 123 L 1468 125 L 1466 127 L 1460 128 L 1459 129 L 1432 129 L 1431 128 L 1428 128 L 1424 126 L 1421 123 L 1420 119 L 1375 119 L 1375 125 L 1376 126 L 1376 129 L 1379 135 L 1381 137 L 1381 138 L 1390 146 L 1396 149 L 1401 150 L 1402 151 L 1406 151 L 1407 152 L 1411 152 L 1412 153 L 1418 153 L 1419 154 L 1430 154 L 1431 155 L 1459 155 L 1460 154 L 1471 154 L 1472 153 L 1478 153 L 1479 152 L 1483 152 L 1484 151 L 1487 151 L 1488 150 L 1493 149 L 1501 145 L 1509 137 L 1512 131 L 1512 129 L 1513 128 L 1513 123 L 1514 122 L 1514 114 L 1513 113 L 1513 109 L 1512 108 L 1512 106 L 1510 102 L 1502 95 L 1498 93 L 1496 93 L 1495 92 L 1493 92 L 1489 90 L 1485 90 L 1484 89 L 1476 89 L 1475 88 L 1461 88 L 1460 87 L 1440 87 L 1439 86 L 1429 86 L 1428 85 L 1425 85 L 1421 82 L 1421 77 L 1423 75 L 1427 73 L 1429 73 L 1430 72 L 1455 72 L 1456 73 L 1462 74 L 1465 77 L 1466 81 L 1509 81 L 1510 80 L 1510 77 L 1509 76 L 1509 73 L 1508 72 L 1508 70 L 1506 66 L 1500 59 L 1499 59 L 1494 55 L 1490 54 L 1487 52 L 1481 51 L 1480 50 L 1477 50 L 1476 49 L 1470 49 L 1469 48 L 1461 48 L 1460 47 L 1428 47 L 1427 48 L 1418 48 L 1417 49 L 1411 49 L 1410 50 L 1403 51 L 1397 54 L 1395 54 L 1388 58 Z
M 815 67 L 813 65 L 813 64 L 806 57 L 803 56 L 801 54 L 799 54 L 794 51 L 792 51 L 788 49 L 778 48 L 777 47 L 753 47 L 752 48 L 742 49 L 741 50 L 736 51 L 724 57 L 719 62 L 718 61 L 718 50 L 674 50 L 674 83 L 673 84 L 673 129 L 672 130 L 672 152 L 717 152 L 717 111 L 718 110 L 718 89 L 719 88 L 719 86 L 725 80 L 729 78 L 737 77 L 738 76 L 758 76 L 759 77 L 763 77 L 769 80 L 773 84 L 773 86 L 774 87 L 774 138 L 773 139 L 773 143 L 774 144 L 774 150 L 773 151 L 774 152 L 818 152 L 818 116 L 819 115 L 819 81 L 818 80 L 818 75 L 817 74 L 817 72 L 816 71 Z
M 1542 30 L 1540 32 L 1540 49 L 1539 50 L 1520 50 L 1520 78 L 1539 78 L 1540 79 L 1540 123 L 1541 124 L 1541 130 L 1542 131 L 1542 134 L 1544 138 L 1552 147 L 1558 150 L 1561 150 L 1562 151 L 1566 151 L 1567 152 L 1573 152 L 1574 153 L 1592 153 L 1593 152 L 1608 152 L 1608 124 L 1607 123 L 1590 123 L 1589 122 L 1587 122 L 1585 120 L 1585 118 L 1584 117 L 1584 79 L 1585 78 L 1610 78 L 1610 50 L 1585 50 L 1584 49 L 1584 22 L 1580 22 L 1579 23 L 1575 23 L 1574 24 L 1569 24 L 1568 25 L 1565 25 L 1564 26 L 1560 26 L 1559 27 L 1556 27 L 1555 28 L 1551 28 L 1550 29 Z
M 511 50 L 509 50 L 508 49 L 485 49 L 484 50 L 480 50 L 479 51 L 474 52 L 464 57 L 459 62 L 458 61 L 458 55 L 459 54 L 459 50 L 416 50 L 415 51 L 415 56 L 414 57 L 413 73 L 412 74 L 412 80 L 411 81 L 411 87 L 410 88 L 410 95 L 409 96 L 409 103 L 408 104 L 407 117 L 406 118 L 406 123 L 405 124 L 405 131 L 404 132 L 404 139 L 403 140 L 403 145 L 402 146 L 402 152 L 446 152 L 447 150 L 447 144 L 448 143 L 448 137 L 449 136 L 449 129 L 450 128 L 450 123 L 451 122 L 451 116 L 452 115 L 453 101 L 454 100 L 454 96 L 456 92 L 464 85 L 466 85 L 467 84 L 471 84 L 472 83 L 479 83 L 480 82 L 495 82 L 496 83 L 504 83 L 505 84 L 507 83 L 508 71 L 509 70 L 509 64 L 510 63 L 510 58 L 511 57 Z
M 217 58 L 212 58 L 211 59 L 208 59 L 207 60 L 201 61 L 197 63 L 194 63 L 193 64 L 191 64 L 190 65 L 188 65 L 187 66 L 179 68 L 176 70 L 170 71 L 169 72 L 167 72 L 166 73 L 164 73 L 163 74 L 161 74 L 160 75 L 158 75 L 157 76 L 149 78 L 146 80 L 144 80 L 141 82 L 139 82 L 136 84 L 134 84 L 127 88 L 125 88 L 122 90 L 120 90 L 117 92 L 113 93 L 111 95 L 96 102 L 94 104 L 86 107 L 84 109 L 77 113 L 74 116 L 70 118 L 67 121 L 63 123 L 58 128 L 57 128 L 36 149 L 36 150 L 34 152 L 35 153 L 91 153 L 95 148 L 95 147 L 98 144 L 98 143 L 102 139 L 102 138 L 108 132 L 108 131 L 119 120 L 120 120 L 128 112 L 129 112 L 139 103 L 140 103 L 143 100 L 144 100 L 146 98 L 153 94 L 156 91 L 157 91 L 162 87 L 167 85 L 169 83 L 172 82 L 179 77 L 190 72 L 194 69 L 196 69 L 203 65 L 205 65 L 217 59 Z
M 558 123 L 558 118 L 559 116 L 562 113 L 564 113 L 568 111 L 573 111 L 574 110 L 615 110 L 616 111 L 616 114 L 615 115 L 615 119 L 614 121 L 608 126 L 604 127 L 603 128 L 600 128 L 599 129 L 592 129 L 591 130 L 572 130 L 571 129 L 565 129 L 561 127 Z
M 1258 85 L 1260 81 L 1265 76 L 1269 75 L 1270 74 L 1273 74 L 1274 73 L 1280 73 L 1281 72 L 1299 72 L 1300 73 L 1305 73 L 1306 74 L 1309 74 L 1310 75 L 1314 76 L 1318 80 L 1320 84 L 1320 87 L 1319 88 L 1259 88 L 1258 87 Z" fill="#ffffff" fill-rule="evenodd" clip-rule="evenodd"/>
</svg>

