<svg xmlns="http://www.w3.org/2000/svg" viewBox="0 0 1024 1024">
  <defs>
    <linearGradient id="bg" x1="0" y1="0" x2="1" y2="1">
      <stop offset="0" stop-color="#0f766e"/>
      <stop offset="1" stop-color="#14b8a6"/>
    </linearGradient>
  </defs>
  <rect x="0" y="0" width="1024" height="1024" rx="232" ry="232" fill="url(#bg)"/>
  <g transform="translate(512 512) scale(1.6) translate(-206 -80)" fill="#ffffff" fill-rule="evenodd" clip-rule="evenodd">
    <path d="M 8 51 L 9 52 L 43 52 L 44 53 L 108 53 L 109 54 L 109 58 L 108 59 L 108 61 L 102 72 L 95 80 L 91 87 L 88 90 L 88 92 L 89 92 L 100 86 L 102 86 L 105 84 L 107 84 L 114 80 L 116 80 L 121 77 L 123 77 L 128 74 L 130 74 L 133 72 L 135 72 L 143 68 L 146 68 L 147 67 L 152 66 L 155 64 L 157 64 L 158 63 L 160 63 L 161 62 L 163 62 L 164 61 L 166 61 L 167 60 L 169 60 L 170 59 L 172 59 L 173 58 L 175 58 L 176 57 L 178 57 L 179 56 L 181 56 L 182 55 L 184 55 L 185 54 L 187 54 L 191 52 L 194 52 L 195 51 L 198 51 L 199 50 L 206 49 L 210 47 L 213 47 L 214 46 L 217 46 L 218 45 L 221 45 L 222 44 L 225 44 L 226 43 L 230 43 L 231 42 L 234 42 L 235 41 L 238 41 L 239 40 L 242 40 L 243 39 L 252 38 L 253 37 L 256 37 L 257 36 L 269 35 L 270 34 L 282 33 L 283 32 L 289 32 L 290 31 L 296 31 L 297 30 L 303 30 L 304 29 L 309 29 L 310 28 L 317 28 L 318 27 L 325 27 L 326 26 L 334 26 L 335 25 L 343 25 L 344 24 L 353 24 L 354 23 L 367 23 L 368 22 L 384 22 L 385 21 L 390 21 L 396 18 L 399 15 L 399 14 L 395 10 L 391 9 L 390 8 L 16 8 L 15 10 L 15 14 L 14 15 L 14 20 L 13 21 L 13 26 L 12 27 L 12 33 L 11 34 L 11 38 L 10 39 L 10 43 L 9 44 L 9 48 L 8 49 Z M 405 30 L 404 29 L 386 29 L 385 28 L 382 28 L 381 29 L 380 28 L 379 29 L 361 29 L 360 30 L 352 30 L 351 31 L 345 31 L 344 32 L 333 33 L 332 34 L 328 34 L 327 35 L 318 36 L 317 37 L 314 37 L 313 38 L 309 38 L 308 39 L 305 39 L 304 40 L 301 40 L 300 41 L 297 41 L 296 42 L 289 43 L 288 44 L 286 44 L 285 45 L 283 45 L 282 46 L 280 46 L 279 47 L 271 49 L 268 51 L 263 52 L 260 54 L 258 54 L 250 58 L 248 58 L 230 67 L 228 69 L 217 74 L 215 76 L 214 76 L 212 78 L 211 78 L 209 80 L 202 84 L 199 87 L 198 87 L 196 89 L 189 93 L 184 98 L 183 98 L 176 105 L 175 105 L 152 129 L 152 130 L 146 137 L 144 142 L 142 144 L 140 149 L 138 151 L 138 153 L 270 153 L 272 149 L 272 143 L 273 142 L 273 133 L 274 132 L 274 126 L 275 125 L 275 119 L 276 118 L 276 113 L 277 112 L 278 99 L 279 98 L 279 93 L 280 92 L 280 87 L 281 86 L 281 81 L 282 80 L 282 74 L 283 73 L 283 69 L 285 66 L 303 66 L 304 65 L 319 65 L 320 64 L 339 64 L 340 63 L 366 63 L 367 62 L 391 62 L 392 61 L 395 61 L 400 56 L 401 52 L 402 51 L 402 46 L 403 45 L 403 40 L 404 39 L 404 33 L 405 32 Z M 217 58 L 212 58 L 211 59 L 208 59 L 207 60 L 201 61 L 197 63 L 194 63 L 193 64 L 191 64 L 190 65 L 188 65 L 187 66 L 179 68 L 176 70 L 170 71 L 169 72 L 167 72 L 166 73 L 164 73 L 163 74 L 161 74 L 160 75 L 158 75 L 157 76 L 149 78 L 146 80 L 144 80 L 141 82 L 139 82 L 136 84 L 134 84 L 127 88 L 125 88 L 122 90 L 120 90 L 117 92 L 113 93 L 111 95 L 96 102 L 94 104 L 86 107 L 84 109 L 77 113 L 74 116 L 70 118 L 67 121 L 63 123 L 58 128 L 57 128 L 36 149 L 36 150 L 34 152 L 35 153 L 91 153 L 95 148 L 95 147 L 98 144 L 98 143 L 102 139 L 102 138 L 108 132 L 108 131 L 119 120 L 120 120 L 128 112 L 129 112 L 139 103 L 140 103 L 143 100 L 144 100 L 146 98 L 153 94 L 156 91 L 157 91 L 162 87 L 167 85 L 169 83 L 172 82 L 179 77 L 190 72 L 194 69 L 196 69 L 203 65 L 205 65 L 217 59 Z"/>
  </g>
</svg>